# Blender 5.0.1
# www.blender.org
mtllib Dado_Animales.mtl
g Cube_Mesh
v 1.000000 1.000000 -1.000000
v 1.000000 -1.000000 -1.000000
v 1.000000 1.000000 1.000000
v 1.000000 -1.000000 1.000000
v -1.000000 1.000000 -1.000000
v -1.000000 -1.000000 -1.000000
v -1.000000 1.000000 1.000000
v -1.000000 -1.000000 1.000000
vn -0.0000 1.0000 -0.0000
vn -0.0000 -0.0000 1.0000
vn -1.0000 -0.0000 -0.0000
vn -0.0000 -1.0000 -0.0000
vn 1.0000 -0.0000 -0.0000
vn -0.0000 -0.0000 -1.0000
vt 0.511893 0.991942
vt 0.744490 0.681312
vt 0.741691 0.993999
vt 0.751376 0.660508
vt 0.502084 0.341414
vt 0.751203 0.341192
vt 0.492601 0.655945
vt 0.259445 0.339672
vt 0.495799 0.337866
vt 0.751084 0.014147
vt 0.514219 0.327824
vt 0.514219 0.014147
vt 1.003414 0.659696
vt 0.756968 0.337972
vt 1.004979 0.339989
vt 0.250001 0.652961
vt 0.006842 0.340656
vt 0.250113 0.340919
vt 0.514691 0.679256
vt 0.502257 0.660730
vt 0.256247 0.657751
vt 0.751084 0.327824
vt 0.755403 0.657678
vt 0.006731 0.652699
s 0
g off
g Cube_Material
usemtl Material
f 5/1/1 3/2/1 1/3/1
f 3/4/2 8/5/2 4/6/2
f 7/7/3 6/8/3 8/9/3
f 2/10/4 8/11/4 6/12/4
f 1/13/5 4/14/5 2/15/5
f 5/16/6 2/17/6 6/18/6
f 5/1/1 7/19/1 3/2/1
f 3/4/2 7/20/2 8/5/2
f 7/7/3 5/21/3 6/8/3
f 2/10/4 4/22/4 8/11/4
f 1/13/5 3/23/5 4/14/5
f 5/16/6 1/24/6 2/17/6
